<mxfile host="app.diagrams.net" modified="2021-06-25T10:47:26.893Z" agent="5.0 (Windows NT 10.0; Win64; x64) AppleWebKit/537.36 (KHTML, like Gecko) Chrome/91.0.4472.114 Safari/537.36 Edg/91.0.864.54" etag="B8clulAdSHREOuRlM394" version="14.7.7" type="github">
  <diagram id="kgpKYQtTHZ0yAKxKKP6v" name="Page-1">
    <mxGraphModel dx="1054" dy="624" grid="1" gridSize="10" guides="1" tooltips="1" connect="1" arrows="1" fold="1" page="1" pageScale="1" pageWidth="850" pageHeight="1100" math="0" shadow="0">
      <root>
        <mxCell id="0" />
        <mxCell id="1" parent="0" />
        <mxCell id="cs5FUqzTph7XAXS6S7f7-13" style="edgeStyle=orthogonalEdgeStyle;rounded=0;orthogonalLoop=1;jettySize=auto;html=1;exitX=0;exitY=0.5;exitDx=0;exitDy=0;entryX=0.72;entryY=0.975;entryDx=0;entryDy=0;entryPerimeter=0;" edge="1" parent="1" source="cs5FUqzTph7XAXS6S7f7-1" target="cs5FUqzTph7XAXS6S7f7-9">
          <mxGeometry relative="1" as="geometry">
            <mxPoint x="544" y="190" as="targetPoint" />
          </mxGeometry>
        </mxCell>
        <mxCell id="cs5FUqzTph7XAXS6S7f7-1" value="Virtual Machine 4 {Location 4}" style="rounded=0;whiteSpace=wrap;html=1;fillColor=#ffe6cc;strokeColor=#d79b00;sketch=1;" vertex="1" parent="1">
          <mxGeometry x="570" y="440" width="120" height="40" as="geometry" />
        </mxCell>
        <mxCell id="cs5FUqzTph7XAXS6S7f7-2" value="Dynatrace SaaS" style="rounded=0;whiteSpace=wrap;html=1;fillColor=#dae8fc;strokeColor=#6c8ebf;sketch=1;" vertex="1" parent="1">
          <mxGeometry x="200" y="40" width="480" height="40" as="geometry" />
        </mxCell>
        <mxCell id="cs5FUqzTph7XAXS6S7f7-12" style="edgeStyle=orthogonalEdgeStyle;rounded=0;orthogonalLoop=1;jettySize=auto;html=1;exitX=0;exitY=0.5;exitDx=0;exitDy=0;entryX=0.31;entryY=1;entryDx=0;entryDy=0;entryPerimeter=0;startArrow=none;startFill=0;endArrow=classic;endFill=1;" edge="1" parent="1" source="cs5FUqzTph7XAXS6S7f7-3" target="cs5FUqzTph7XAXS6S7f7-9">
          <mxGeometry relative="1" as="geometry" />
        </mxCell>
        <mxCell id="cs5FUqzTph7XAXS6S7f7-3" value="&lt;span&gt;Virtual Machine 3 {Location 3}&lt;/span&gt;" style="rounded=0;whiteSpace=wrap;html=1;fillColor=#ffe6cc;strokeColor=#d79b00;sketch=1;" vertex="1" parent="1">
          <mxGeometry x="570" y="370" width="120" height="40" as="geometry" />
        </mxCell>
        <mxCell id="cs5FUqzTph7XAXS6S7f7-11" style="edgeStyle=orthogonalEdgeStyle;rounded=0;orthogonalLoop=1;jettySize=auto;html=1;exitX=0;exitY=0.5;exitDx=0;exitDy=0;" edge="1" parent="1" source="cs5FUqzTph7XAXS6S7f7-4">
          <mxGeometry relative="1" as="geometry">
            <mxPoint x="423" y="200" as="targetPoint" />
          </mxGeometry>
        </mxCell>
        <mxCell id="cs5FUqzTph7XAXS6S7f7-4" value="&lt;span style=&quot;color: rgb(0, 0, 0); font-family: helvetica; font-size: 12px; font-style: normal; font-weight: 400; letter-spacing: normal; text-align: center; text-indent: 0px; text-transform: none; word-spacing: 0px; display: inline; float: none;&quot;&gt;Virtual Machine 2 {Location 2}&lt;/span&gt;" style="rounded=0;whiteSpace=wrap;html=1;fillColor=#ffe6cc;strokeColor=#d79b00;labelBackgroundColor=none;sketch=1;" vertex="1" parent="1">
          <mxGeometry x="570" y="300" width="120" height="40" as="geometry" />
        </mxCell>
        <mxCell id="cs5FUqzTph7XAXS6S7f7-10" style="edgeStyle=orthogonalEdgeStyle;rounded=0;orthogonalLoop=1;jettySize=auto;html=1;exitX=0;exitY=0.5;exitDx=0;exitDy=0;entryX=0.5;entryY=1;entryDx=0;entryDy=0;" edge="1" parent="1" source="cs5FUqzTph7XAXS6S7f7-5" target="cs5FUqzTph7XAXS6S7f7-9">
          <mxGeometry relative="1" as="geometry" />
        </mxCell>
        <mxCell id="cs5FUqzTph7XAXS6S7f7-5" value="&lt;span style=&quot;color: rgb(0, 0, 0); font-family: helvetica; font-size: 12px; font-style: normal; font-weight: 400; letter-spacing: normal; text-align: center; text-indent: 0px; text-transform: none; word-spacing: 0px; display: inline; float: none;&quot;&gt;Virtual Machine 1 {Location 1}&lt;/span&gt;" style="rounded=0;whiteSpace=wrap;html=1;fillColor=#ffe6cc;strokeColor=#d79b00;labelBackgroundColor=none;sketch=1;" vertex="1" parent="1">
          <mxGeometry x="571" y="230" width="120" height="40" as="geometry" />
        </mxCell>
        <mxCell id="cs5FUqzTph7XAXS6S7f7-23" style="edgeStyle=orthogonalEdgeStyle;rounded=0;orthogonalLoop=1;jettySize=auto;html=1;exitX=0.25;exitY=0;exitDx=0;exitDy=0;entryX=0.519;entryY=0.975;entryDx=0;entryDy=0;entryPerimeter=0;startArrow=none;startFill=0;endArrow=classic;endFill=1;" edge="1" parent="1" source="cs5FUqzTph7XAXS6S7f7-9" target="cs5FUqzTph7XAXS6S7f7-2">
          <mxGeometry relative="1" as="geometry" />
        </mxCell>
        <mxCell id="cs5FUqzTph7XAXS6S7f7-29" style="edgeStyle=orthogonalEdgeStyle;rounded=0;orthogonalLoop=1;jettySize=auto;html=1;exitX=0;exitY=0.5;exitDx=0;exitDy=0;startArrow=none;startFill=0;endArrow=block;endFill=1;" edge="1" parent="1" source="cs5FUqzTph7XAXS6S7f7-30">
          <mxGeometry relative="1" as="geometry">
            <mxPoint x="220" y="180" as="targetPoint" />
          </mxGeometry>
        </mxCell>
        <mxCell id="cs5FUqzTph7XAXS6S7f7-9" value="Synthetic Control" style="rounded=0;whiteSpace=wrap;html=1;fillColor=#d5e8d4;strokeColor=#82b366;sketch=1;" vertex="1" parent="1">
          <mxGeometry x="400" y="160" width="200" height="40" as="geometry" />
        </mxCell>
        <mxCell id="cs5FUqzTph7XAXS6S7f7-17" value="" style="endArrow=none;dashed=1;html=1;dashPattern=1 3;strokeWidth=2;" edge="1" parent="1">
          <mxGeometry width="50" height="50" relative="1" as="geometry">
            <mxPoint x="80" y="130" as="sourcePoint" />
            <mxPoint x="800" y="130" as="targetPoint" />
          </mxGeometry>
        </mxCell>
        <mxCell id="cs5FUqzTph7XAXS6S7f7-18" value="" style="endArrow=none;dashed=1;html=1;dashPattern=1 3;strokeWidth=2;" edge="1" parent="1">
          <mxGeometry width="50" height="50" relative="1" as="geometry">
            <mxPoint x="80" y="600" as="sourcePoint" />
            <mxPoint x="80" y="130" as="targetPoint" />
          </mxGeometry>
        </mxCell>
        <mxCell id="cs5FUqzTph7XAXS6S7f7-19" value="" style="endArrow=none;dashed=1;html=1;dashPattern=1 3;strokeWidth=2;" edge="1" parent="1">
          <mxGeometry width="50" height="50" relative="1" as="geometry">
            <mxPoint x="800" y="600" as="sourcePoint" />
            <mxPoint x="800" y="130" as="targetPoint" />
          </mxGeometry>
        </mxCell>
        <mxCell id="cs5FUqzTph7XAXS6S7f7-20" value="" style="endArrow=none;dashed=1;html=1;dashPattern=1 3;strokeWidth=2;" edge="1" parent="1">
          <mxGeometry width="50" height="50" relative="1" as="geometry">
            <mxPoint x="80" y="600" as="sourcePoint" />
            <mxPoint x="800" y="600" as="targetPoint" />
          </mxGeometry>
        </mxCell>
        <mxCell id="cs5FUqzTph7XAXS6S7f7-21" value="Datacenter Network" style="text;html=1;align=center;verticalAlign=middle;resizable=0;points=[];autosize=1;strokeColor=none;" vertex="1" parent="1">
          <mxGeometry x="365" y="610" width="120" height="20" as="geometry" />
        </mxCell>
        <mxCell id="cs5FUqzTph7XAXS6S7f7-25" value="&lt;div style=&quot;color: rgb(0, 0, 0); font-size: 12px; font-style: normal; font-weight: 400; letter-spacing: normal; text-indent: 0px; text-transform: none; word-spacing: 0px; background-color: rgb(248, 249, 250); text-align: left;&quot;&gt;&lt;span&gt;- Response Time&lt;/span&gt;&lt;/div&gt;&lt;div style=&quot;color: rgb(0, 0, 0); font-size: 12px; font-style: normal; font-weight: 400; letter-spacing: normal; text-indent: 0px; text-transform: none; word-spacing: 0px; background-color: rgb(248, 249, 250); text-align: left;&quot;&gt;&lt;span&gt;- Location Info&lt;/span&gt;&lt;/div&gt;&lt;div style=&quot;color: rgb(0, 0, 0); font-size: 12px; font-style: normal; font-weight: 400; letter-spacing: normal; text-indent: 0px; text-transform: none; word-spacing: 0px; background-color: rgb(248, 249, 250); text-align: left;&quot;&gt;&lt;span&gt;- Timing data&lt;/span&gt;&lt;/div&gt;&lt;div style=&quot;color: rgb(0, 0, 0); font-size: 12px; font-style: normal; font-weight: 400; letter-spacing: normal; text-indent: 0px; text-transform: none; word-spacing: 0px; background-color: rgb(248, 249, 250); text-align: left;&quot;&gt;&lt;span&gt;- Screenshots&lt;/span&gt;&lt;/div&gt;" style="text;whiteSpace=wrap;html=1;fontFamily=Comic Sans MS;" vertex="1" parent="1">
          <mxGeometry x="620" y="150" width="120" height="70" as="geometry" />
        </mxCell>
        <mxCell id="cs5FUqzTph7XAXS6S7f7-28" value="Endpoint" style="swimlane;labelBackgroundColor=none;fillColor=#e1d5e7;strokeColor=#9673a6;swimlaneFillColor=none;sketch=1;" vertex="1" parent="1">
          <mxGeometry x="110" y="140" width="110" height="90" as="geometry">
            <mxRectangle x="110" y="140" width="80" height="23" as="alternateBounds" />
          </mxGeometry>
        </mxCell>
        <mxCell id="cs5FUqzTph7XAXS6S7f7-30" value="Screenshots Store" style="text;html=1;align=center;verticalAlign=middle;resizable=0;points=[];autosize=1;strokeColor=none;" vertex="1" parent="1">
          <mxGeometry x="250" y="170" width="110" height="20" as="geometry" />
        </mxCell>
        <mxCell id="cs5FUqzTph7XAXS6S7f7-31" value="" style="edgeStyle=orthogonalEdgeStyle;rounded=0;orthogonalLoop=1;jettySize=auto;html=1;exitX=0;exitY=0.5;exitDx=0;exitDy=0;startArrow=none;startFill=0;endArrow=none;endFill=1;" edge="1" parent="1" source="cs5FUqzTph7XAXS6S7f7-9" target="cs5FUqzTph7XAXS6S7f7-30">
          <mxGeometry relative="1" as="geometry">
            <mxPoint x="220" y="180" as="targetPoint" />
            <mxPoint x="400" y="180" as="sourcePoint" />
          </mxGeometry>
        </mxCell>
      </root>
    </mxGraphModel>
  </diagram>
</mxfile>
